<svg width="445.71429443359375" height="187.57052115038988" viewBox="-10 -6 365.41368078175896 153.77751038210985" class="css-1j8o68f"><defs id="SvgjsDefs8273"></defs><g id="SvgjsG8274" featurekey="QMusi1-0" transform="matrix(1.684554151639048,0,0,1.684554151639048,-64.14877302338284,-16.147754492220447)" fill="#64ee85"><path xmlns="http://www.w3.org/2000/svg" d="M52.094,93.749c0.001,0,11.108-7.41,0.883-22.909c-4.773-7.235-12.596-14.971-11.701-22.63  c-1.015,0.883-1.937,1.859-2.38,2.453c-1.618,2.169-2.791,4.529-3.392,6.964c-0.697,2.823-0.515,5.795,1.102,8.686  c1.501,2.683,4.107,5.103,6.558,7.537c5.868,5.826,11.036,12.018,9.461,18.607C52.541,92.811,52.5,93.478,52.094,93.749z"></path><path xmlns="http://www.w3.org/2000/svg" d="M59.398,79.14c0.001-0.001,17.835-11.897,1.417-36.782C53.152,30.742,40.592,18.321,42.03,6.024  c-1.365,1.194-3.11,2.985-3.821,3.939c-2.598,3.482-4.481,7.271-5.446,11.181c-1.12,4.533-0.827,9.304,1.77,13.946  c2.41,4.308,6.594,8.193,10.53,12.102c9.421,9.355,17.719,19.295,15.19,29.876C60.116,77.635,60.049,78.706,59.398,79.14z"></path></g><g id="SvgjsG8275" featurekey="UyNsn2-0" transform="matrix(3.927753273770592,0,0,3.927753273770592,77.72150447345179,23.397353248464327)" fill="#ffffff"><path d="M3.94 13.620000000000001 c-0.42666 -0.17334 -0.82332 -0.36666 -1.19 -0.58 s-0.68332 -0.47 -0.94998 -0.77 s-0.47332 -0.65334 -0.61998 -1.06 s-0.22 -0.89 -0.22 -1.45 c0 -0.69334 0.12 -1.3033 0.36 -1.83 s0.57666 -0.97 1.01 -1.33 s0.95668 -0.63334 1.57 -0.82 s1.2933 -0.28 2.04 -0.28 c0.61334 0 1.24 0.06334 1.88 0.19 s1.4067 0.34332 2.3 0.64998 l-1.36 2.44 c-0.86666 -0.41334 -1.78 -0.62 -2.74 -0.62 c-0.18666 0 -0.38 0.02 -0.58 0.06 s-0.38 0.11 -0.54 0.21 s-0.29334 0.23666 -0.4 0.41 s-0.16 0.4 -0.16 0.68 c0 0.22666 0.04334 0.41332 0.13 0.55998 s0.19666 0.27332 0.33 0.37998 s0.28668 0.19666 0.46002 0.27 s0.34668 0.14334 0.52002 0.21 l1.18 0.46 c0.50666 0.2 0.97 0.41 1.39 0.63 s0.77666 0.48666 1.07 0.8 s0.52 0.69668 0.68 1.15 s0.24 1.02 0.24 1.7 s-0.12334 1.3 -0.37 1.86 s-0.60666 1.0367 -1.08 1.43 s-1.0567 0.7 -1.75 0.92 s-1.4867 0.33 -2.38 0.33 c-0.41334 0 -0.79334 -0.01334 -1.14 -0.04 s-0.68332 -0.07332 -1.01 -0.13998 s-0.65332 -0.14666 -0.97998 -0.24 s-0.67666 -0.21334 -1.05 -0.36 l0.68 -2.8 c0.54666 0.14666 1.0833 0.27666 1.61 0.39 s1.0633 0.17 1.61 0.17 c0.73334 0 1.2933 -0.09666 1.68 -0.29 s0.61332 -0.56334 0.67998 -1.11 c0.02666 -0.28 -0.0066796 -0.51334 -0.10002 -0.7 s-0.22668 -0.34332 -0.40002 -0.46998 s-0.36668 -0.23 -0.58002 -0.31 l-0.64 -0.24 z M12.34 8.4 c0 0.01334 -0.09002 0.019961 -0.27002 0.019961 l-0.59 0 l-0.84 0 l1.36 -2.44 l3.36 0 l0 4.52 c0.28 -0.26666 0.62666 -0.50332 1.04 -0.70998 s0.90668 -0.31 1.48 -0.31 c1.1867 0 2.07 0.33 2.65 0.99 s0.87 1.71 0.87 3.15 l0 6.38 l-3.04 0 l0 -5.98 c0 -0.52 -0.12 -0.93334 -0.36 -1.24 s-0.60666 -0.46 -1.1 -0.46 c-0.42666 0 -0.79 0.11666 -1.09 0.35 s-0.45 0.67668 -0.45 1.33 l0 6 l-3.06 0 z M27.8 9.44 c0.69334 0 1.3166 0.096622 1.87 0.28996 s1.0167 0.50668 1.39 0.94002 s0.66 0.99 0.86 1.67 s0.3 1.5 0.3 2.46 l0 0.31 l-0.04 0.63 l-5.6 0 l-0.42 -0.06 c0.01334 0.38666 0.05668 0.69666 0.13002 0.93 s0.18 0.41668 0.32 0.55002 s0.31 0.22668 0.51 0.28002 s0.42666 0.08668 0.68 0.10002 c0.41334 0.02666 0.77 -0.03334 1.07 -0.18 s0.58334 -0.44666 0.85 -0.9 c0.41334 0.13334 0.79334 0.26 1.14 0.38 c0.29334 0.10666 0.56 0.2 0.8 0.28 s0.36 0.11334 0.36 0.1 c-0.48 1 -1.0633 1.73 -1.75 2.19 s-1.51 0.69 -2.47 0.69 c-0.70666 0 -1.3467 -0.09334 -1.92 -0.28 s-1.06 -0.49 -1.46 -0.91 s-0.71 -0.96666 -0.93 -1.64 s-0.33 -1.4967 -0.33 -2.47 c0 -0.94666 0.11 -1.7567 0.33 -2.43 s0.53 -1.2267 0.93 -1.66 s0.88666 -0.75334 1.46 -0.96 s1.2133 -0.31 1.92 -0.31 z M28.9 13.440000000000001 l0.30004 0.04 c-0.02666 -0.46666 -0.15 -0.83 -0.37 -1.09 s-0.56334 -0.39 -1.03 -0.39 c-0.53334 0 -0.91668 0.13 -1.15 0.39 s-0.37668 0.62334 -0.43002 1.09 c0.06666 -0.01334 0.12666 -0.02334 0.18 -0.03 s0.11334 -0.01 0.18 -0.01 l2.32 0 z M34.099999999999994 8.44 l-1.48 0 l1.28 -2.46 l3.22 0 l0 14.02 l-3.02 0 l0 -11.56 z M37.099999999999994 14.6 l2.58 -5.04 l3.42 0 l-2.68 4.9 c0.24 0.42666 0.49 0.87666 0.75 1.35 s0.52334 0.95 0.79 1.43 s0.53 0.95666 0.79 1.43 s0.51 0.91668 0.75 1.33 l-3.4 0 z M47.94 9.56 l0 10.44 l-3.02 0 l0 -7.22 l0.1 -0.72 l-1.72 0 l1.36 -2.5 l3.28 0 z M47.86 8.7 l-3 0 l0 -2.72 l3 0 l0 2.72 z M50.5 12.04 l-1.68 0 l1.32 -2.48 l2.9 0 l0.26 1.12 c0.33334 -0.36 0.73 -0.66 1.19 -0.9 s0.99 -0.36 1.59 -0.36 c1.2133 0 2.1134 0.32334 2.7 0.97 s0.88 1.67 0.88 3.07 l0 6.54 l-3.04 0 l0 -6.02 c0 -0.61334 -0.15 -1.0533 -0.45 -1.32 s-0.68334 -0.4 -1.15 -0.4 c-0.38666 0 -0.73332 0.13 -1.04 0.39 s-0.46 0.69 -0.46 1.29 l0 6.06 l-3.02 0 l0 -7.96 z M66.28 9.44 c0.69334 0 1.3166 0.096622 1.87 0.28996 s1.0167 0.50668 1.39 0.94002 s0.66 0.99 0.86 1.67 s0.3 1.5 0.3 2.46 l0 0.31 l-0.04 0.63 l-5.6 0 l-0.42 -0.06 c0.01334 0.38666 0.05668 0.69666 0.13002 0.93 s0.18 0.41668 0.32 0.55002 s0.31 0.22668 0.51 0.28002 s0.42666 0.08668 0.68 0.10002 c0.41334 0.02666 0.77 -0.03334 1.07 -0.18 s0.58334 -0.44666 0.85 -0.9 c0.41334 0.13334 0.79334 0.26 1.14 0.38 c0.29334 0.10666 0.56 0.2 0.8 0.28 s0.36 0.11334 0.36 0.1 c-0.48 1 -1.0633 1.73 -1.75 2.19 s-1.51 0.69 -2.47 0.69 c-0.70666 0 -1.3467 -0.09334 -1.92 -0.28 s-1.06 -0.49 -1.46 -0.91 s-0.71 -0.96666 -0.93 -1.64 s-0.33 -1.4967 -0.33 -2.47 c0 -0.94666 0.11 -1.7567 0.33 -2.43 s0.53 -1.2267 0.93 -1.66 s0.88666 -0.75334 1.46 -0.96 s1.2133 -0.31 1.92 -0.31 z M67.38 13.440000000000001 l0.30004 0.04 c-0.02666 -0.46666 -0.15 -0.83 -0.37 -1.09 s-0.56334 -0.39 -1.03 -0.39 c-0.53334 0 -0.91668 0.13 -1.15 0.39 s-0.37668 0.62334 -0.43002 1.09 c0.06666 -0.01334 0.12666 -0.02334 0.18 -0.03 s0.11334 -0.01 0.18 -0.01 l2.32 0 z"></path></g></svg>